<svg xmlns="http://www.w3.org/2000/svg" width="44" height="44" fill="none" viewBox="0 0 44 44"><ellipse cx="22" cy="21.697" fill="#FF811A" rx="20.167" ry="19.889"/><path fill="#fff" d="M22.0003 12.6562C20.9878 12.6562 20.167 13.4657 20.167 14.4643V23.5045C20.167 24.5031 20.9878 25.3126 22.0003 25.3126C23.0128 25.3126 23.8337 24.5031 23.8337 23.5045V14.4643C23.8337 13.4657 23.0128 12.6562 22.0003 12.6562Z"/><path fill="#fff" d="M22.0003 30.7367C23.0128 30.7367 23.8337 29.9272 23.8337 28.9287C23.8337 27.9301 23.0128 27.1206 22.0003 27.1206C20.9878 27.1206 20.167 27.9301 20.167 28.9287C20.167 29.9272 20.9878 30.7367 22.0003 30.7367Z"/></svg>