<svg xmlns="http://www.w3.org/2000/svg" width="50" height="50" fill="none" viewBox="0 0 50 50"><g opacity=".6"><path stroke="#171717" stroke-linecap="round" stroke-linejoin="round" stroke-width="1.83" d="M49 10.5517C40.1201 9.7597 31.1865 9.35171 22.2799 9.35171C16.9999 9.35171 11.7199 9.5917 6.44 10.0717L1 10.5517"/><path stroke="#171717" stroke-linecap="round" stroke-linejoin="round" stroke-width="1.83" d="M15.6652 8.12783L16.2518 4.98388C16.6785 2.70395 16.9985 1 21.5051 1H28.4918C32.9984 1 33.3451 2.79995 33.7451 5.00788L34.3317 8.12783"/><path stroke="#171717" stroke-linecap="round" stroke-linejoin="round" stroke-width="1.83" d="M43.2662 18.137L41.5329 42.3042C41.2396 46.0721 40.9996 49 33.5596 49H16.4397C8.99973 49 8.75973 46.0721 8.46635 42.3042L6.73303 18.137"/><path stroke="#171717" stroke-linecap="round" stroke-linejoin="round" stroke-width="1.83" d="M20.5466 35.799H29.4266"/><path stroke="#171717" stroke-linecap="round" stroke-linejoin="round" stroke-width="1.83" d="M18.3333 26.1992H31.6666"/></g></svg>