<svg xmlns="http://www.w3.org/2000/svg" width="24" height="25" fill="none" viewBox="0 0 24 25"><g opacity=".7"><path stroke="#171717" stroke-linecap="round" stroke-linejoin="round" d="M18 8.48665C15.78 8.26665 13.5467 8.15332 11.32 8.15332C10 8.15332 8.68 8.21999 7.36 8.35332L6 8.48665"/><path stroke="#171717" stroke-linecap="round" stroke-linejoin="round" d="M9.66797 7.81325L9.81464 6.93992C9.9213 6.30659 10.0013 5.83325 11.128 5.83325H12.8746C14.0013 5.83325 14.088 6.33325 14.188 6.94659L14.3346 7.81325"/><path stroke="#171717" stroke-linecap="round" stroke-linejoin="round" d="M16.5669 10.5933L16.1336 17.3066C16.0603 18.3533 16.0003 19.1666 14.1403 19.1666H9.86026C8.00026 19.1666 7.94026 18.3533 7.86693 17.3066L7.43359 10.5933"/><path stroke="#171717" stroke-linecap="round" stroke-linejoin="round" d="M10.8867 15.5H13.1067"/><path stroke="#171717" stroke-linecap="round" stroke-linejoin="round" d="M10.332 12.8333H13.6654"/></g></svg>