<svg xmlns="http://www.w3.org/2000/svg" width="15" height="15" fill="none" viewBox="0 0 15 15"><g clip-path="url(#clip0_632_5742)" opacity=".6"><path stroke="#171717" stroke-linecap="round" stroke-linejoin="round" stroke-width=".75" d="M12.3746 4.48999C10.7096 4.32499 9.03454 4.23999 7.36453 4.23999C6.37453 4.23999 5.38452 4.28999 4.39452 4.38999L3.37451 4.48999"/><path stroke="#171717" stroke-linecap="round" stroke-linejoin="round" stroke-width=".75" d="M6.12427 3.98501L6.23427 3.33C6.31427 2.855 6.37427 2.5 7.21927 2.5H8.52928C9.37429 2.5 9.43929 2.875 9.51429 3.335L9.62429 3.98501"/><path stroke="#171717" stroke-linecap="round" stroke-linejoin="round" stroke-width=".75" d="M11.2995 6.07031L10.9745 11.1053C10.9195 11.8903 10.8745 12.5003 9.47949 12.5003H6.26947C4.87447 12.5003 4.82947 11.8903 4.77446 11.1053L4.44946 6.07031"/><path stroke="#171717" stroke-linecap="round" stroke-linejoin="round" stroke-width=".75" d="M7.03955 9.75H8.70456"/><path stroke="#171717" stroke-linecap="round" stroke-linejoin="round" stroke-width=".75" d="M6.62451 7.75H9.12453"/></g><defs><clipPath id="clip0_632_5742"><rect width="14" height="14" fill="#fff" transform="translate(0.874512 0.5)"/></clipPath></defs></svg>