<svg xmlns="http://www.w3.org/2000/svg" id="Wand-Sparkles--Streamline-Lucide.svg" width="16" height="16" fill="none" stroke="#000" stroke-linecap="round" stroke-linejoin="round" viewBox="-0.5 -0.5 16 16"><desc>Wand Sparkles Streamline Icon: https://streamlinehq.com</desc><path stroke-width="1" d="m13.525 2.275 -0.8 -0.8a0.75625 0.75625 0 0 0 -1.075 0L1.4749999999999999 11.65a0.75625 0.75625 0 0 0 0 1.075l0.8 0.8a0.75 0.75 0 0 0 1.075 0L13.525 3.35a0.75 0.75 0 0 0 0 -1.075"/><path stroke-width="1" d="m8.75 4.375 1.875 1.875"/><path stroke-width="1" d="M3.125 3.75v2.5"/><path stroke-width="1" d="M11.875 8.75v2.5"/><path stroke-width="1" d="M6.25 1.25v1.25"/><path stroke-width="1" d="M4.375 5H1.875"/><path stroke-width="1" d="M13.125 10h-2.5"/><path stroke-width="1" d="M6.875 1.875H5.625"/></svg>